<?xml version="1.0" encoding="UTF-8"?> <svg xmlns="http://www.w3.org/2000/svg" width="64" height="64" viewBox="0 0 64 64" fill="none"><path d="M40 40.106C45.922 37.158 50 31.062 50 24C50 14.058 41.942 6 32 6C22.058 6 14 14.058 14 24C14 31.064 18.078 37.16 24 40.106V46H40" stroke="#2A8B00" stroke-width="4" stroke-miterlimit="10" stroke-linecap="round" stroke-linejoin="round"></path><path d="M24 52H40" stroke="#2A8B00" stroke-width="4" stroke-miterlimit="10" stroke-linecap="round" stroke-linejoin="round"></path><path d="M28 58H36" stroke="#2A8B00" stroke-width="4" stroke-miterlimit="10" stroke-linecap="round" stroke-linejoin="round"></path><path d="M24 46V52" stroke="#2A8B00" stroke-width="4" stroke-miterlimit="10" stroke-linecap="round" stroke-linejoin="round"></path><path d="M40 46V52" stroke="#2A8B00" stroke-width="4" stroke-miterlimit="10" stroke-linecap="round" stroke-linejoin="round"></path><rect x="30" y="34" width="4" height="10" fill="#2A8B00"></rect><path d="M38 28C38 28.7879 37.8448 29.5681 37.5433 30.2961C37.2417 31.0241 36.7998 31.6855 36.2426 32.2426C35.6855 32.7998 35.0241 33.2417 34.2961 33.5433C33.5681 33.8448 32.7879 34 32 34C31.2121 34 30.4319 33.8448 29.7039 33.5433C28.9759 33.2417 28.3145 32.7998 27.7574 32.2426C27.2002 31.6855 26.7583 31.0241 26.4567 30.2961C26.1552 29.5681 26 28.7879 26 28" stroke="#2A8B00" stroke-width="4" stroke-linecap="round"></path></svg> 